<svg width="48" height="49" viewBox="0 0 48 49" fill="none" xmlns="http://www.w3.org/2000/svg">
<path d="M23.9999 0.950073C19.2888 0.950073 14.6834 2.34709 10.7662 4.96447C6.84908 7.58184 3.79601 11.302 1.99313 15.6545C0.190253 20.0071 -0.281463 24.7965 0.637637 29.4171C1.55674 34.0377 3.82537 38.282 7.15666 41.6133C10.4879 44.9446 14.7322 47.2133 19.3529 48.1324C23.9735 49.0515 28.7629 48.5797 33.1154 46.7769C37.468 44.974 41.1881 41.9209 43.8055 38.0037C46.4229 34.0866 47.8199 29.4812 47.8199 24.7701C47.8136 18.4545 45.3019 12.3995 40.8362 7.93381C36.3704 3.46807 30.3154 0.956426 23.9999 0.950073ZM23.9999 45.5901C19.8821 45.5901 15.8568 44.369 12.4329 42.0813C9.00914 39.7935 6.34059 36.5419 4.76477 32.7375C3.18896 28.9332 2.77665 24.747 3.57999 20.7083C4.38334 16.6696 6.36625 12.9598 9.27798 10.0481C12.1897 7.13638 15.8994 5.15347 19.9381 4.35012C23.9768 3.54678 28.163 3.95909 31.9674 5.5349C35.7717 7.11072 39.0234 9.77927 41.3111 13.2031C43.5988 16.6269 44.8199 20.6522 44.8199 24.7701C44.8136 30.2899 42.618 35.5819 38.7149 39.485C34.8117 43.3881 29.5198 45.5837 23.9999 45.5901Z" fill="black"/>
<path d="M33.876 15.6981C32.124 15.9741 30.372 16.1661 28.608 16.2981C29.2919 15.3605 29.6616 14.2306 29.664 13.0701C29.6989 12.3179 29.581 11.5665 29.3172 10.8612C29.0534 10.156 28.6494 9.51157 28.1295 8.96693C27.6096 8.4223 26.9846 7.98877 26.2923 7.69257C25.6001 7.39637 24.8549 7.24365 24.102 7.24365C23.349 7.24365 22.6039 7.39637 21.9116 7.69257C21.2194 7.98877 20.5944 8.4223 20.0745 8.96693C19.5546 9.51157 19.1505 10.156 18.8867 10.8612C18.623 11.5665 18.505 12.3179 18.54 13.0701C18.5423 14.2306 18.912 15.3605 19.596 16.2981C17.832 16.1661 16.068 15.9741 14.316 15.6981C13.595 15.5579 12.8484 15.6417 12.1764 15.9381C11.5044 16.2345 10.9391 16.7294 10.5564 17.3563C10.1737 17.9832 9.99198 18.7121 10.0355 19.4453C10.079 20.1785 10.3458 20.8808 10.8 21.458C11.0814 21.8506 11.4388 22.1825 11.8512 22.434C12.2635 22.6855 12.7222 22.8515 13.2 22.922C15.204 23.246 17.28 23.4741 19.392 23.6181V25.4781L13.2 35.2101C12.94 35.6158 12.7624 36.0689 12.6775 36.5433C12.5925 37.0177 12.6019 37.5041 12.7049 37.9749C12.9131 38.9257 13.4905 39.7549 14.31 40.28C15.1295 40.8052 16.1241 40.9832 17.0749 40.7751C17.5457 40.672 17.9915 40.4772 18.387 40.2018C18.7826 39.9264 19.12 39.5758 19.38 39.17L24 31.826L28.644 39.17C28.9018 39.579 29.2381 39.9328 29.6334 40.2111C30.0288 40.4894 30.4753 40.6865 30.9473 40.7913C31.4193 40.896 31.9073 40.9061 32.3832 40.8212C32.8592 40.7362 33.3135 40.5578 33.7201 40.2963C34.1267 40.0347 34.4775 39.6952 34.7521 39.2974C35.0267 38.8995 35.2198 38.4512 35.3202 37.9783C35.4207 37.5053 35.4264 37.0172 35.3371 36.5421C35.2478 36.067 35.0652 35.6142 34.8 35.2101L28.8 25.766V23.5701C30.912 23.4261 32.988 23.1981 34.992 22.8741C35.9468 22.7149 36.7992 22.183 37.3618 21.3954C37.9244 20.6077 38.1511 19.6288 37.992 18.6741C37.8328 17.7193 37.3009 16.8668 36.5133 16.3042C35.7256 15.7416 34.7468 15.5149 33.792 15.6741L33.876 15.6981ZM24.096 10.5021C24.6067 10.4878 25.1101 10.6261 25.5418 10.8994C25.9734 11.1727 26.3138 11.5686 26.5192 12.0364C26.7247 12.5042 26.7859 13.0227 26.6951 13.5254C26.6043 14.0282 26.3656 14.4925 26.0095 14.8589C25.6533 15.2253 25.196 15.4771 24.696 15.5822C24.196 15.6872 23.676 15.6407 23.2026 15.4487C22.7291 15.2566 22.3238 14.9277 22.0383 14.504C21.7528 14.0802 21.6002 13.581 21.6 13.0701C21.5997 12.4013 21.8604 11.7588 22.3265 11.2792C22.7926 10.7996 23.4275 10.5208 24.096 10.5021ZM34.56 19.9701C32.1431 20.3492 29.7076 20.5976 27.264 20.7141C26.8788 20.7326 26.5155 20.8987 26.2496 21.1781C25.9836 21.4574 25.8355 21.8284 25.836 22.2141V26.2101C25.8379 26.4954 25.9211 26.7743 26.076 27.0141L32.292 36.77C32.3386 36.8433 32.3703 36.925 32.3852 37.0105C32.4002 37.096 32.3981 37.1837 32.3792 37.2684C32.3602 37.3531 32.3248 37.4332 32.2748 37.5042C32.2248 37.5752 32.1613 37.6356 32.088 37.682C31.9392 37.773 31.7609 37.8026 31.5907 37.7645C31.4205 37.7265 31.2718 37.6237 31.176 37.478L25.272 28.166C25.1435 27.9613 24.9671 27.7909 24.758 27.6697C24.549 27.5484 24.3135 27.4799 24.072 27.47C23.8186 27.4702 23.5694 27.534 23.3471 27.6556C23.1248 27.7772 22.9367 27.9528 22.8 28.166L16.8 37.526C16.759 37.6095 16.7008 37.6833 16.6293 37.7427C16.5577 37.8021 16.4744 37.8457 16.3849 37.8707C16.2953 37.8957 16.2015 37.9014 16.1096 37.8876C16.0176 37.8738 15.9296 37.8407 15.8514 37.7905C15.7731 37.7403 15.7063 37.6741 15.6554 37.5964C15.6045 37.5186 15.5706 37.4309 15.5559 37.3391C15.5412 37.2473 15.5461 37.1534 15.5703 37.0636C15.5944 36.9738 15.6372 36.8901 15.696 36.8181L22.092 26.726C22.2487 26.4872 22.3321 26.2077 22.332 25.922V22.2021C22.3324 21.8164 22.1843 21.4454 21.9184 21.1661C21.6525 20.8867 21.2892 20.7206 20.904 20.7021C18.4726 20.5889 16.049 20.3445 13.644 19.9701C13.5577 19.958 13.4749 19.9283 13.4006 19.8829C13.3263 19.8375 13.2621 19.7773 13.212 19.7061C13.1316 19.6018 13.0849 19.4756 13.078 19.3442C13.0711 19.2128 13.1044 19.0824 13.1734 18.9703C13.2425 18.8583 13.344 18.7699 13.4645 18.717C13.585 18.6641 13.7188 18.6491 13.848 18.6741C20.6373 19.7541 27.5547 19.7541 34.344 18.6741C34.5167 18.6491 34.6925 18.6911 34.8352 18.7915C34.978 18.8919 35.077 19.043 35.112 19.2141C35.1363 19.3871 35.0923 19.5628 34.9893 19.704C34.8862 19.8451 34.7322 19.9405 34.56 19.9701Z" fill="black"/>
</svg>
