<svg width="40" height="40" viewBox="0 0 40 40" fill="none" xmlns="http://www.w3.org/2000/svg">
<path fill-rule="evenodd" clip-rule="evenodd" d="M7.186 0.77002C8.1091 0.77002 8.8574 1.51834 8.8574 2.44145V5.78431H12.2C13.1231 5.78431 13.8714 6.53263 13.8714 7.45573C13.8714 8.37883 13.1231 9.12713 12.2 9.12713H8.8574V12.47C8.8574 13.3931 8.1091 14.1414 7.186 14.1414C6.2629 14.1414 5.51456 13.3931 5.51456 12.47V9.12713H2.17143C1.24832 9.12713 0.5 8.37883 0.5 7.45573C0.5 6.53263 1.24832 5.78431 2.17143 5.78431H5.51456V2.44145C5.51456 1.51834 6.2629 0.77002 7.186 0.77002ZM18.886 1.88431C17.9629 1.88431 17.2146 2.63263 17.2146 3.55574C17.2146 4.47884 17.9629 5.22717 18.886 5.22717H31.1431C33.9124 5.22717 36.1574 7.47213 36.1574 10.2414V22.4986H25.5714C23.7252 22.4986 22.2286 23.9952 22.2286 25.8414V36.4271H9.9717C7.2024 36.4271 4.95742 34.1822 4.95742 31.4129V19.1557C4.95742 18.2326 4.20909 17.4843 3.28599 17.4843C2.36288 17.4843 1.61456 18.2326 1.61456 19.1557V31.4129C1.61456 36.0284 5.35618 39.77 9.9717 39.77H22.7536C24.379 39.77 25.9378 39.1243 27.0871 37.975L37.7053 27.3569C38.8546 26.2075 39.5003 24.6487 39.5003 23.0233V10.2414C39.5003 5.62593 35.7587 1.88431 31.1431 1.88431H18.886ZM25.5714 34.7632L34.4932 25.8414H25.5714V34.7632Z" fill="#1D1C1D"/>
</svg>
