<svg width="48" height="47" viewBox="0 0 48 47" fill="none" xmlns="http://www.w3.org/2000/svg">
<path d="M42.0001 0.67018H6.00021C5.32889 0.668602 4.66383 0.799267 4.04301 1.05471C3.42219 1.31016 2.85776 1.68538 2.38196 2.15896C1.90614 2.63254 1.52828 3.19519 1.26992 3.81481C1.01156 4.43443 0.877778 5.09886 0.876203 5.77018V41.7702C0.869835 42.4459 0.997847 43.1163 1.2528 43.7422C1.50776 44.368 1.88456 44.9371 2.36132 45.4161C2.83808 45.895 3.40529 46.2745 4.02998 46.5324C4.65467 46.7902 5.32439 46.9213 6.00021 46.9182H42.0001C42.676 46.9213 43.3458 46.7902 43.9704 46.5324C44.5952 46.2745 45.1623 45.895 45.6391 45.4161C46.1158 44.9371 46.4927 44.368 46.7477 43.7422C47.0025 43.1163 47.1306 42.4459 47.1241 41.7702V5.77018C47.1226 5.09886 46.9888 4.43443 46.7305 3.81481C46.4721 3.19519 46.0943 2.63254 45.6185 2.15896C45.1427 1.68538 44.5782 1.31016 43.9573 1.05471C43.3365 0.799267 42.6715 0.668602 42.0001 0.67018ZM44.1241 41.7702C44.1306 42.052 44.0804 42.3322 43.9761 42.5941C43.872 42.8562 43.7161 43.0944 43.518 43.2949C43.3198 43.4953 43.0833 43.6539 42.8224 43.761C42.5617 43.8679 42.282 43.9215 42.0001 43.9182H6.00021C5.71833 43.9215 5.43867 43.8679 5.17791 43.761C4.91715 43.6539 4.68062 43.4953 4.48241 43.2949C4.2842 43.0944 4.12838 42.8562 4.02423 42.5941C3.92009 42.3322 3.86975 42.052 3.87621 41.7702V5.77018C3.87618 5.49237 3.93129 5.21733 4.03832 4.96096C4.14536 4.7046 4.30218 4.47202 4.49975 4.27671C4.6973 4.08138 4.93164 3.92721 5.18919 3.82309C5.44676 3.71898 5.72241 3.667 6.00021 3.67018H42.0001C42.2779 3.667 42.5536 3.71898 42.8112 3.82309C43.0687 3.92721 43.3031 4.08138 43.5006 4.27671C43.6982 4.47202 43.8551 4.7046 43.9622 4.96096C44.0691 5.21733 44.1241 5.49237 44.1241 5.77018V41.7702Z" fill="#1D1C1D"/>
<path d="M34.884 16.366H31.2L31.716 12.8859C31.7444 12.6905 31.7339 12.4915 31.6854 12.3001C31.6368 12.1087 31.551 11.9287 31.4328 11.7705C31.1943 11.4509 30.8387 11.2392 30.444 11.182C30.0494 11.1247 29.6481 11.2265 29.3285 11.465C29.009 11.7036 28.7972 12.0593 28.74 12.4539L28.164 16.366H22.476L22.98 12.8859C23.0207 12.686 23.0201 12.4799 22.9784 12.2801C22.9365 12.0804 22.8545 11.8913 22.7372 11.7244C22.6199 11.5575 22.4697 11.4163 22.2959 11.3094C22.122 11.2025 21.9282 11.1321 21.7263 11.1027C21.5244 11.0733 21.3186 11.0854 21.1217 11.1382C20.9246 11.191 20.7404 11.2835 20.5802 11.41C20.4201 11.5365 20.2875 11.6943 20.1905 11.8738C20.0934 12.0533 20.034 12.2507 20.016 12.4539L19.44 16.366H14.5439C14.1461 16.366 13.7646 16.524 13.4833 16.8052C13.202 17.0866 13.0439 17.4681 13.0439 17.866C13.0439 18.2638 13.202 18.6453 13.4833 18.9267C13.7646 19.2079 14.1461 19.366 14.5439 19.366H19.008L17.928 26.758H13.1279C12.7301 26.758 12.3486 26.916 12.0673 27.1972C11.786 27.4786 11.6279 27.8601 11.6279 28.258C11.6279 28.6558 11.786 29.0373 12.0673 29.3187C12.3486 29.5999 12.7301 29.758 13.1279 29.758H17.496L16.8 34.702C16.7402 35.0862 16.8318 35.4786 17.0556 35.7964C17.2796 36.1143 17.6181 36.3328 18 36.406H18.228C18.587 36.4039 18.9333 36.2733 19.2041 36.0376C19.475 35.8021 19.6523 35.4772 19.704 35.122L20.52 29.77H26.184L25.464 34.714C25.4055 35.1069 25.5053 35.5071 25.7415 35.8266C25.9778 36.1461 26.331 36.3588 26.724 36.418H26.952C27.311 36.4159 27.6573 36.2853 27.9281 36.0496C28.199 35.8141 28.3763 35.4892 28.428 35.134L29.22 29.77H33.456C33.8538 29.77 34.2353 29.6119 34.5167 29.3307C34.7979 29.0493 34.956 28.6678 34.956 28.27C34.956 27.8721 34.7979 27.4906 34.5167 27.2092C34.2353 26.928 33.8538 26.77 33.456 26.77H29.652L30.744 19.378H34.884C35.2818 19.378 35.6633 19.2199 35.9447 18.9387C36.2259 18.6573 36.384 18.2758 36.384 17.878C36.384 17.4801 36.2259 17.0986 35.9447 16.8172C35.6633 16.536 35.2818 16.378 34.884 16.378V16.366ZM26.628 26.758H20.952L22.032 19.366H27.708L26.628 26.758Z" fill="#1D1C1D"/>
</svg>

