<svg width="48" height="33" viewBox="0 0 48 33" fill="none" xmlns="http://www.w3.org/2000/svg">
<path d="M45.3842 2.56993C44.8686 2.27641 44.2854 2.12206 43.6922 2.12206C43.0989 2.12206 42.5157 2.27641 42.0002 2.56993L34.8002 6.76993V5.85793C34.8002 4.50534 34.2629 3.20812 33.3065 2.25169C32.3499 1.29526 31.0527 0.757935 29.7002 0.757935H6.00015C4.64754 0.757935 3.35034 1.29526 2.39389 2.25169C1.43747 3.20812 0.900146 4.50534 0.900146 5.85793V27.1099C0.900146 27.7796 1.03206 28.4429 1.28836 29.0617C1.54465 29.6804 1.92033 30.2426 2.39389 30.7162C2.86747 31.1897 3.4297 31.5655 4.04845 31.8217C4.66722 32.078 5.3304 32.2099 6.00015 32.2099H29.6762C30.3479 32.2132 31.0137 32.0836 31.6352 31.8286C32.2568 31.5737 32.8218 31.1986 33.2979 30.7247C33.774 30.2509 34.1519 29.6875 34.4097 29.0672C34.6674 28.4468 34.8002 27.7817 34.8002 27.1099V26.1979L42.0002 30.3499C42.5219 30.6509 43.1139 30.8083 43.7162 30.8059C44.3148 30.8096 44.9034 30.6521 45.4202 30.3499C45.944 30.0532 46.3791 29.6221 46.6808 29.1011C46.9824 28.58 47.1396 27.988 47.1362 27.3859V5.58193C47.1447 4.96819 46.9863 4.36368 46.6776 3.83311C46.3691 3.30253 45.9219 2.8659 45.3842 2.56993ZM31.7762 8.44987V27.1099C31.7762 27.6668 31.5549 28.201 31.161 28.5949C30.7673 28.9886 30.2331 29.2099 29.6762 29.2099H6.00015C5.44318 29.2099 4.90905 28.9886 4.51522 28.5949C4.1214 28.201 3.90015 27.6668 3.90015 27.1099V5.85793C3.90331 5.30307 4.12596 4.77201 4.51945 4.38076C4.91293 3.98953 5.44527 3.76993 6.00015 3.76993H29.6762C30.2331 3.76993 30.7673 3.99118 31.161 4.38501C31.5549 4.77883 31.7762 5.31298 31.7762 5.86993V8.44987ZM44.1002 27.3859C44.1015 27.4601 44.082 27.5333 44.0438 27.5969C44.0057 27.6605 43.9503 27.7123 43.8842 27.7459C43.8224 27.7882 43.7492 27.8108 43.6742 27.8108C43.5992 27.8108 43.526 27.7882 43.4642 27.7459L34.8002 22.7299V10.2379L43.4882 5.22194C43.55 5.17964 43.6232 5.157 43.6982 5.157C43.7732 5.157 43.8464 5.17964 43.9082 5.22194C43.9743 5.25567 44.0297 5.30731 44.0678 5.37096C44.106 5.43462 44.1255 5.50771 44.1242 5.58193L44.1002 27.3859Z" fill="#1D1C1D"/>
<path d="M25.6082 16.022C25.242 15.8945 24.8404 15.9163 24.4902 16.0823C24.1398 16.2485 23.8691 16.5458 23.7361 16.91C23.2956 18.1082 22.4996 19.1431 21.4545 19.8763C20.4096 20.6095 19.1655 21.0058 17.889 21.0124C16.6125 21.0188 15.3644 20.6353 14.3119 19.9127C13.2595 19.1903 12.4529 18.1636 12.0001 16.97C11.8474 16.6331 11.5738 16.3658 11.2334 16.2211C10.893 16.0763 10.5106 16.0648 10.1621 16.1885C9.81347 16.3123 9.52404 16.5623 9.35109 16.8893C9.17814 17.2163 9.13427 17.5963 9.22814 17.954C9.86816 19.7392 11.044 21.2831 12.5948 22.3745C14.1456 23.4661 15.9957 24.0518 17.8921 24.0518C19.7886 24.0518 21.6387 23.4661 23.1895 22.3745C24.7402 21.2831 25.9161 19.7392 26.5562 17.954C26.6292 17.7655 26.6623 17.5639 26.6535 17.362C26.6448 17.1599 26.5942 16.9619 26.5053 16.7804C26.4162 16.5989 26.2905 16.4378 26.1362 16.3073C25.9817 16.1768 25.802 16.0796 25.6082 16.022Z" fill="#1D1C1D"/>
<path d="M14.844 15.158C15.1924 15.1603 15.5337 15.0595 15.8247 14.8681C16.1158 14.6768 16.3438 14.4035 16.4799 14.0828C16.6159 13.7621 16.6539 13.4083 16.5891 13.066C16.5243 12.7237 16.3596 12.4082 16.1158 12.1594C15.8719 11.9105 15.5599 11.7395 15.2191 11.6678C14.8782 11.5961 14.5237 11.6269 14.2003 11.7563C13.8769 11.8858 13.599 12.1082 13.4018 12.3953C13.2046 12.6826 13.0968 13.0216 13.092 13.37C13.0873 13.6031 13.129 13.8347 13.2149 14.0515C13.3008 14.2682 13.4291 14.4656 13.5923 14.6321C13.7555 14.7986 13.9502 14.9309 14.1652 15.0212C14.3801 15.1115 14.6109 15.158 14.844 15.158Z" fill="#1D1C1D"/>
<path d="M20.5558 15.158C20.9041 15.1603 21.2454 15.0595 21.5365 14.8681C21.8277 14.6768 22.0555 14.4035 22.1916 14.0828C22.3276 13.7621 22.3657 13.4083 22.3009 13.066C22.2361 12.7237 22.0714 12.4082 21.8277 12.1594C21.5838 11.9105 21.2718 11.7395 20.9308 11.6678C20.59 11.5961 20.2354 11.6269 19.912 11.7563C19.5886 11.8858 19.3108 12.1082 19.1136 12.3953C18.9163 12.6826 18.8086 13.0216 18.8038 13.37C18.799 13.6031 18.8407 13.8347 18.9267 14.0515C19.0126 14.2682 19.1409 14.4656 19.3041 14.6321C19.4673 14.7986 19.662 14.9309 19.8769 15.0212C20.0919 15.1115 20.3227 15.158 20.5558 15.158Z" fill="#1D1C1D"/>
</svg>
