<svg width="40" height="47" viewBox="0 0 40 47" fill="none" xmlns="http://www.w3.org/2000/svg">
<path d="M34.3997 4.36602H21.1157L22.2557 3.16602C22.5104 2.87953 22.6457 2.50641 22.634 2.12328C22.6222 1.74013 22.4642 1.37605 22.1923 1.10577C21.9205 0.835493 21.5555 0.679531 21.1724 0.669907C20.7892 0.660283 20.4169 0.797728 20.1317 1.05402L16.5317 4.65402C16.3921 4.79335 16.2812 4.95888 16.2056 5.14111C16.13 5.32335 16.091 5.51872 16.091 5.71602C16.091 5.91333 16.13 6.10869 16.2056 6.29092C16.2812 6.47316 16.3921 6.63868 16.5317 6.77802L20.1317 10.378C20.2715 10.519 20.4379 10.6309 20.6213 10.7071C20.8046 10.7833 21.0013 10.8224 21.1997 10.822C21.3967 10.8235 21.5918 10.7849 21.7735 10.7086C21.955 10.6322 22.1191 10.5198 22.2557 10.378C22.3951 10.2397 22.5056 10.0752 22.5811 9.89395C22.6565 9.71272 22.6954 9.51834 22.6954 9.32202C22.6954 9.1257 22.6565 8.93133 22.5811 8.75008C22.5056 8.56885 22.3951 8.40433 22.2557 8.26602L21.3077 7.31802H34.3997C34.9558 7.32117 35.4881 7.54344 35.8813 7.93657C36.2744 8.32972 36.4966 8.86204 36.4997 9.41802V38.17C36.4966 38.7261 36.2744 39.2583 35.8813 39.6514C35.4881 40.0446 34.9558 40.2669 34.3997 40.27H28.3997C28.0019 40.27 27.6205 40.4281 27.3391 40.7094C27.0578 40.9906 26.8997 41.3722 26.8997 41.77C26.8997 42.1678 27.0578 42.5494 27.3391 42.8307C27.6205 43.1119 28.0019 43.27 28.3997 43.27H34.3997C35.7514 43.2669 37.0468 42.7285 38.0026 41.7727C38.9582 40.8171 39.4966 39.5217 39.4997 38.17V9.46602C39.4966 8.11438 38.9582 6.81903 38.0026 5.86327C37.0468 4.90753 35.7514 4.36918 34.3997 4.36602Z" fill="#1D1C1D"/>
<path d="M19.832 37.114C19.547 36.8577 19.1745 36.7203 18.7914 36.7299C18.4082 36.7395 18.0432 36.8955 17.7715 37.1658C17.4996 37.4361 17.3415 37.8001 17.3298 38.1832C17.318 38.5663 17.4533 38.9395 17.708 39.226L18.752 40.27H5.6C5.04401 40.2669 4.5117 40.0446 4.11856 39.6514C3.7254 39.2583 3.50315 38.7259 3.5 38.17V9.46598C3.50315 8.90999 3.7254 8.37767 4.11856 7.98454C4.5117 7.59139 5.04401 7.36913 5.6 7.36598H11.6C11.9978 7.36598 12.3794 7.20794 12.6606 6.92663C12.9419 6.64534 13.1 6.2638 13.1 5.86597C13.1 5.46815 12.9419 5.08661 12.6606 4.80532C12.3794 4.52401 11.9978 4.36597 11.6 4.36597H5.6C4.24836 4.36915 2.95301 4.90748 1.99725 5.86324C1.0415 6.81898 0.503165 8.11435 0.5 9.46598V38.17C0.503165 39.5217 1.0415 40.8169 1.99725 41.7727C2.95301 42.7285 4.24836 43.2669 5.6 43.27H18.8L17.756 44.314C17.5487 44.523 17.4075 44.7883 17.3501 45.0769C17.2925 45.3657 17.3213 45.6648 17.4324 45.9373C17.5437 46.2097 17.7327 46.4436 17.9759 46.6093C18.219 46.7752 18.5057 46.8658 18.8 46.87C18.9969 46.8714 19.1921 46.8328 19.3736 46.7565C19.5552 46.6801 19.7193 46.5678 19.856 46.426L23.456 42.826C23.5956 42.6867 23.7065 42.5211 23.7821 42.3388C23.8577 42.1566 23.8967 41.9613 23.8967 41.764C23.8967 41.5666 23.8577 41.3713 23.7821 41.1891C23.7065 41.0068 23.5956 40.8414 23.456 40.702L19.832 37.114Z" fill="#1D1C1D"/>
<path d="M18.2841 13.7979C17.9099 13.7489 17.5311 13.8464 17.2271 14.07C16.923 14.2936 16.7169 14.626 16.6521 14.9979L16.2561 17.7699H12.7281C12.3462 17.7699 11.9799 17.9215 11.7099 18.1917C11.4398 18.4617 11.2881 18.828 11.2881 19.2099C11.2881 19.5918 11.4398 19.9581 11.7099 20.2281C11.9799 20.4981 12.3462 20.6499 12.7281 20.6499H15.8361L15.0801 25.7619H11.6001C11.4008 25.7436 11.1998 25.7671 11.01 25.8309C10.8203 25.8946 10.646 25.9972 10.4981 26.1322C10.3503 26.2671 10.2321 26.4315 10.1513 26.6146C10.0705 26.7978 10.0288 26.9956 10.0288 27.1959C10.0288 27.396 10.0705 27.594 10.1513 27.7771C10.2321 27.9603 10.3503 28.1245 10.4981 28.2595C10.646 28.3944 10.8203 28.4971 11.01 28.5609C11.1998 28.6246 11.4008 28.6482 11.6001 28.6299H14.6241L14.1561 32.1699C14.1041 32.5446 14.2004 32.9248 14.4245 33.2296C14.6486 33.5344 14.9829 33.7398 15.3561 33.8019H15.5721C15.9117 33.801 16.2401 33.6801 16.4993 33.4605C16.7583 33.2409 16.9314 32.9367 16.9881 32.6019L17.6001 28.6299H21.3921L20.8401 32.1699C20.7881 32.5446 20.8844 32.9248 21.1085 33.2296C21.3326 33.5344 21.6669 33.7398 22.0401 33.8019H22.2561C22.5957 33.801 22.9241 33.6801 23.1833 33.4605C23.4423 33.2409 23.6154 32.9367 23.6721 32.6019L24.2481 28.7019H27.2601C27.6177 28.6692 27.9503 28.5039 28.1924 28.2385C28.4346 27.9732 28.5687 27.627 28.5687 27.2679C28.5687 26.9086 28.4346 26.5624 28.1924 26.2972C27.9503 26.0319 27.6177 25.8666 27.2601 25.8339H24.6801L25.4241 20.7219H28.4001C28.7916 20.7219 29.1669 20.5663 29.4438 20.2896C29.7206 20.0127 29.8762 19.6374 29.8762 19.2459C29.8762 18.8544 29.7206 18.4789 29.4438 18.2022C29.1669 17.9254 28.7916 17.7699 28.4001 17.7699H25.8801L26.2281 15.4299C26.2802 15.0552 26.1839 14.6748 25.9598 14.37C25.7355 14.0652 25.4013 13.8599 25.0281 13.7979C24.6548 13.746 24.276 13.8427 23.973 14.0671C23.6702 14.2914 23.4674 14.6256 23.4081 14.9979L22.9401 17.7699H19.1601L19.4961 15.4299C19.551 15.0528 19.4544 14.6694 19.2272 14.3635C19.0001 14.0576 18.6609 13.8542 18.2841 13.7979ZM22.5201 20.6499L21.7761 25.7619H17.9841L18.8001 20.6499H22.5201Z" fill="#1D1C1D"/>
</svg>
