<svg width="38" height="39" viewBox="0 0 38 39" fill="none" xmlns="http://www.w3.org/2000/svg">
<path fill-rule="evenodd" clip-rule="evenodd" d="M7.859 8.57102C4.89262 11.4125 3.10083 15.0922 3.10083 18.5701V22.5282C4.75757 21.002 6.97 20.07 9.4001 20.07H9.7501C12.0421 20.07 13.9001 21.928 13.9001 24.22V34.52C13.9001 36.812 12.0421 38.67 9.7501 38.67H9.4001C4.26385 38.67 0.100098 34.5062 0.100098 29.37C0.100098 29.3306 0.100338 29.2913 0.100828 29.252V18.5701C0.100828 14.0951 2.36985 9.67482 5.7838 6.40452C9.2085 3.1241 13.9171 0.870117 19.0008 0.870117C24.0845 0.870117 28.7932 3.1241 32.2178 6.40452C35.6318 9.67482 37.9008 14.0951 37.9008 18.5701V29.3266L37.9009 29.37C37.9009 34.5062 33.7372 38.67 28.6009 38.67H28.2509C25.959 38.67 24.1009 36.812 24.1009 34.52V24.22C24.1009 21.928 25.959 20.07 28.2509 20.07H28.6009C31.0313 20.07 33.244 21.0023 34.9008 22.5288V18.5701C34.9008 15.0922 33.109 11.4125 30.1426 8.57102C27.1869 5.73969 23.1955 3.87012 19.0008 3.87012C14.8062 3.87012 10.8148 5.73969 7.859 8.57102ZM3.1001 29.3701C3.10016 32.8494 5.9207 35.67 9.4001 35.67H9.7501C10.3852 35.67 10.9001 35.1551 10.9001 34.52V24.22C10.9001 23.5849 10.3852 23.07 9.7501 23.07H9.4001C5.9531 23.07 3.15273 25.8383 3.10083 29.2729L3.1001 29.3701ZM34.9008 29.3701V29.3343C34.8816 25.8713 32.0684 23.07 28.6009 23.07H28.2509C27.6158 23.07 27.1009 23.5849 27.1009 24.22V34.52C27.1009 35.1551 27.6158 35.67 28.2509 35.67H28.6009C32.0803 35.67 34.9008 32.8494 34.9008 29.3701Z" fill="#1D1C1D"/>
</svg>
