<svg width="48" height="41" viewBox="0 0 48 41" fill="none" xmlns="http://www.w3.org/2000/svg">
<path d="M42.0001 9.06593H29.9161V5.87393C29.9161 4.52132 29.3788 3.22412 28.4224 2.26767C27.4659 1.31124 26.1687 0.773926 24.8162 0.773926H6.00015C4.64851 0.777091 3.35314 1.31543 2.3974 2.27118C1.44165 3.22692 0.903314 4.52229 0.900146 5.87393V21.7979C0.900146 23.1506 1.43747 24.4478 2.39389 25.4042C3.35034 26.3606 4.64754 26.8979 6.00015 26.8979H7.92015V31.0259C7.91979 31.3124 8.0008 31.593 8.15376 31.8353C8.30673 32.0774 8.52534 32.2712 8.78415 32.3939C9.0462 32.5089 9.33483 32.5496 9.61843 32.5115C9.90204 32.4734 10.1697 32.358 10.3921 32.1779L16.7041 26.8979H18.0842V30.0779C18.0842 31.4337 18.6228 32.7339 19.5815 33.6927C20.5401 34.6514 21.8403 35.1899 23.1961 35.1899H31.2962L37.6082 40.4819C37.8824 40.7066 38.2257 40.8296 38.5802 40.8299C38.8002 40.8296 39.0174 40.7804 39.2161 40.6859C39.4731 40.5641 39.6904 40.3722 39.8433 40.1322C39.9961 39.8924 40.0782 39.6143 40.0802 39.3299V35.1899H42.0001C43.3527 35.1899 44.6499 34.6526 45.6065 33.6962C46.5629 32.7398 47.1002 31.4426 47.1002 30.0899V14.1659C47.097 12.8144 46.5586 11.519 45.6028 10.5632C44.6472 9.60743 43.3518 9.06909 42.0001 9.06593ZM16.1521 23.8979C15.8023 23.9039 15.4646 24.0263 15.1922 24.2459L10.9201 27.8459V25.4459C10.9201 25.0481 10.7621 24.6666 10.4808 24.3852C10.1995 24.104 9.81796 23.9459 9.42015 23.9459H6.00015C5.44318 23.9459 4.90905 23.7246 4.51522 23.3309C4.1214 22.937 3.90015 22.4028 3.90015 21.8459V5.87393C3.9033 5.31794 4.12555 4.78563 4.5187 4.39248C4.91185 3.99933 5.44416 3.77708 6.00015 3.77393H24.8162C25.3731 3.77393 25.9073 3.99518 26.301 4.389C26.6949 4.78283 26.9161 5.31696 26.9161 5.87393V21.7859C26.9161 22.0632 26.8616 22.3379 26.7554 22.5942C26.6493 22.8504 26.4936 23.0832 26.2976 23.2793C26.1015 23.4755 25.8686 23.631 25.6124 23.7372C25.3562 23.8433 25.0815 23.8979 24.8041 23.8979H16.1521ZM44.1002 30.0899C44.1002 30.6468 43.8789 31.181 43.485 31.5749C43.0913 31.9686 42.5571 32.1899 42.0001 32.1899H38.5802C38.1824 32.1899 37.8008 32.348 37.5195 32.6292C37.2383 32.9106 37.0802 33.2921 37.0802 33.6899V36.0899L32.8082 32.4899C32.5409 32.2599 32.2006 32.1324 31.8481 32.1299H23.1961C22.636 32.1299 22.0988 31.9074 21.7028 31.5113C21.3066 31.1153 21.0842 30.5781 21.0842 30.0179V26.8979H24.8162C26.1687 26.8979 27.4659 26.3606 28.4224 25.4042C29.3788 24.4478 29.9161 23.1506 29.9161 21.7979V12.0779H42.0001C42.5562 12.081 43.0884 12.3033 43.4815 12.6965C43.8747 13.0896 44.097 13.622 44.1002 14.1779V30.0899Z" fill="#1D1C1D"/>
<path d="M9.16803 12.0419C8.854 12.0489 8.54905 12.1485 8.29137 12.3282C8.03368 12.5078 7.83474 12.7595 7.71943 13.0517C7.60414 13.3439 7.57762 13.6635 7.64322 13.9707C7.7088 14.2779 7.86357 14.5589 8.08815 14.7785C8.31271 14.9981 8.5971 15.1466 8.90568 15.2054C9.21424 15.264 9.53328 15.2304 9.82282 15.1086C10.1124 14.9868 10.3595 14.7824 10.5334 14.5208C10.7072 14.259 10.8 13.952 10.8 13.6379C10.8017 13.4247 10.7604 13.2135 10.6786 13.0167C10.5967 12.8199 10.476 12.6417 10.3236 12.4926C10.1712 12.3437 9.99033 12.227 9.79176 12.1494C9.5932 12.072 9.38106 12.0354 9.16803 12.0419Z" fill="#1D1C1D"/>
<path d="M15.444 12.0419C15.1288 12.0443 14.8215 12.14 14.5606 12.3167C14.2997 12.4936 14.097 12.7436 13.9781 13.0355C13.8591 13.3273 13.8292 13.6478 13.8921 13.9567C13.9551 14.2654 14.108 14.5487 14.3317 14.7707C14.5554 14.9927 14.8398 15.1435 15.1489 15.2041C15.4582 15.2647 15.7785 15.2324 16.0695 15.1114C16.3603 14.9902 16.609 14.7856 16.7838 14.5234C16.9587 14.2612 17.052 13.9531 17.052 13.6379C17.052 13.4273 17.0103 13.2188 16.9293 13.0244C16.8484 12.83 16.7298 12.6535 16.5802 12.5051C16.4308 12.3568 16.2534 12.2395 16.0584 12.16C15.8634 12.0805 15.6546 12.0404 15.444 12.0419Z" fill="#1D1C1D"/>
<path d="M21.7322 15.2339C22.0478 15.2339 22.3565 15.1403 22.6188 14.9649C22.8813 14.7896 23.0859 14.5403 23.2067 14.2487C23.3274 13.9571 23.3591 13.6361 23.2976 13.3265C23.2359 13.0169 23.084 12.7325 22.8608 12.5093C22.6376 12.2861 22.3532 12.1341 22.0436 12.0725C21.734 12.011 21.413 12.0426 21.1214 12.1634C20.8298 12.2841 20.5805 12.4887 20.4051 12.7512C20.2298 13.0136 20.1362 13.3223 20.1362 13.6379C20.1345 13.8479 20.1747 14.0562 20.2544 14.2505C20.334 14.4449 20.4516 14.6214 20.6001 14.7699C20.7486 14.9184 20.9252 15.036 21.1196 15.1157C21.3138 15.1953 21.5222 15.2355 21.7322 15.2339Z" fill="#1D1C1D"/>
</svg>
